<?xml version="1.0" standalone="no"?><!DOCTYPE svg PUBLIC "-//W3C//DTD SVG 1.1//EN" "http://www.w3.org/Graphics/SVG/1.1/DTD/svg11.dtd"><svg t="1640223524678" class="icon" viewBox="0 0 1077 1024" version="1.1" xmlns="http://www.w3.org/2000/svg" p-id="41570" xmlns:xlink="http://www.w3.org/1999/xlink" width="210.3515625" height="200"><defs><style type="text/css"></style></defs><path d="M149.763384 20.601492a52.166591 52.166591 0 0 1 82.992304 63.214268C151.164553 190.843497 104.2254 335.433335 104.2254 490.262483c0 154.775257 46.885262 299.365095 128.422506 406.338942a52.166591 52.166591 0 1 1-82.992304 63.214267C54.106671 834.357197 0 667.456441 0 490.262483 0 312.960744 54.106671 146.113879 149.763384 20.547601z m705.326799-9.700399a52.166591 52.166591 0 0 1 73.076341 9.862072C1023.769346 146.221661 1077.822126 313.068526 1077.822126 490.262483c0 177.140066-54.106671 343.986931-149.655602 469.499318a52.166591 52.166591 0 0 1-82.992304-63.214267c81.483353-106.973846 128.368615-251.563684 128.368615-406.338942 0-154.721366-46.885262-299.311204-128.368615-406.231159A52.166591 52.166591 0 0 1 855.090183 10.847202z m-142.326411 827.012917l6.251368 0.538911a34.813655 34.813655 0 0 1 27.969484 28.023375l0.538911 6.197478v34.759763l-0.538911 6.251368a34.813655 34.813655 0 0 1-28.023375 28.023376l-6.197477 0.538911H365.058354l-6.251368-0.538911a34.813655 34.813655 0 0 1-27.969485-28.023376l-0.538911-6.251368v-34.759763l0.538911-6.251369a34.813655 34.813655 0 0 1 28.023376-27.915593l6.197477-0.538911h347.705418zM581.215581 142.557066l6.251369 0.538911a34.813655 34.813655 0 0 1 27.969484 28.023375l0.538911 6.197477v434.631772h86.764681l6.305259 0.538911a34.813655 34.813655 0 0 1 27.915593 27.969485l0.538911 6.251368v52.1127l-0.538911 6.251368a34.813655 34.813655 0 0 1-27.915593 27.969484l-6.251368 0.538911H399.818118l-6.251369-0.538911a34.813655 34.813655 0 0 1-27.915593-28.023375l-0.538911-6.197477v-52.1127l0.538911-6.251368a34.813655 34.813655 0 0 1 27.915593-27.969485l6.251369-0.538911h94.740564V334.67886l-0.538911-6.035804a33.520268 33.520268 0 0 0-32.927466-27.484465l-4.526853 0.269456-4.365179 0.916149-4.311289 1.45506-5.928021 2.694555a37.130972 37.130972 0 0 1-52.274373-28.400613l-0.377238-5.33522v-39.556072l0.538911-6.251368a34.759764 34.759764 0 0 1 12.394954-20.748076l5.173547-3.502922 106.165479-58.040721 4.041833-1.562842 4.311288-0.538911h59.280217z" fill="#333333" p-id="41571"></path></svg>