<?xml version="1.0" encoding="utf-8"?>
<svg version="1.1" xmlns:xlink="http://www.w3.org/1999/xlink" width="191px" height="45px" xmlns="http://www.w3.org/2000/svg">
  <g transform="matrix(1 0 0 1 -861 -235 )">
    <path d="M 0 41.7615264454327  C 0 41.7615264454327  7.1277842710697 41.7615264454327  9.59571857344066 40.4931833082496  C 12.0636528758116 39.2248401710665  16.9508623837936 29.6099940671757  17.8812070216877 28.7545494852357  C 20.8200169216866 26.0523368815318  21.850882918618 29.4410176169976  28.2351650278561 27.6923150747468  C 30.991784556696 26.9372564016464  32.4171594285446 1.3987956228098  35.4681227628668 1.3987956228098  C 38.5190860971889 1.3987956228098  41.7439209392521 36.2527310717358  46.5875443719187 36.2527310717358  C 51.4311678045853 36.2527310717358  52.9597186142075 26.9372564016464  58.6393054020758 26.9372564016464  C 64.3188921899441 26.9372564016464  64.7098536713613 0  69.4867616744698 0  C 74.2636696775783 0  76.0392222490436 0  78.7948413325821 0  C 81.5504604161206 0  82.895314391227 24.7329006901143  86.4064381867814 24.7329006901143  C 89.9175619823359 24.7329006901143  91.6569879234221 19.5693523671442  94.2507200966712 19.5693523671442  C 96.8444522699202 19.5693523671442  97.0002817988834 28.7545494852357  104.321764202136 28.7545494852357  C 111.643246605388 28.7545494852357  114.172015964281 37.7695970127348  116.977806433212 34.8796853010135  C 119.783596902143 31.989773589292  128.771938110727 22.8577458225667  133.868832640219 22.0403616811274  C 138.96572716971 21.2229775396879  138.765903893369 26.5771406075614  142.869741067052 26.8594513550299  C 146.973578240735 27.1417621024983  148.230524647157 34.8796853010135  154.11457080219 34.8796853010135  C 159.998616957224 34.8796853010135  160.113327803234 23.7459750328445  163.743560833354 23.7459750328445  C 167.373793863474 23.7459750328445  168.56180995993 44  174.737728735086 44  C 177.787380966696 44  177.374802014634 42.4016337635556  181.480203542665 42.4016337635556  C 185.585605070695 42.4016337635556  187.083761131781 44  190 44  " stroke-width="1" stroke="#8167f5" fill="none" transform="matrix(1 0 0 1 861 235 )" />
  </g>
</svg>