<?xml version="1.0" encoding="utf-8"?>
<svg version="1.1" xmlns:xlink="http://www.w3.org/1999/xlink" width="190px" height="49px" xmlns="http://www.w3.org/2000/svg">
  <g transform="matrix(1 0 0 1 -1149 -234 )">
    <path d="M 188.75390625 0.489795918367347  L 0 29.8775510204082  L 12.3046875 36.734693877551  L 23.37890625 29.3877551020408  L 29.53125 12.734693877551  L 41.09765625 39.1836734693878  L 51.6796875 32.0816326530612  L 60.78515625 9.79591836734694  L 70.875 42.6122448979592  L 80.47265625 35.0204081632653  L 90.0703125 48  L 100.65234375 26.9387755102041  L 119.6015625 38.2040816326531  L 128.953125 32.0816326530612  L 139.53515625 6.36734693877551  L 149.87109375 36.734693877551  L 159.22265625 18.8571428571429  L 169.06640625 25.2244897959184  L 179.15625 26.9387755102041  L 188.75390625 0.489795918367347  Z " fill-rule="nonzero" fill="#ffffff" stroke="none" transform="matrix(1 0 0 1 1149 234 )" />
    <path d="M 0 29.8775510204082  L 12.3046875 36.734693877551  L 23.37890625 29.3877551020408  L 29.53125 12.734693877551  L 41.09765625 39.1836734693878  L 51.6796875 32.0816326530612  L 60.78515625 9.79591836734694  L 70.875 42.6122448979592  L 80.47265625 35.0204081632653  L 90.0703125 48  L 100.65234375 26.9387755102041  L 119.6015625 38.2040816326531  L 128.953125 32.0816326530612  L 139.53515625 6.36734693877551  L 149.87109375 36.734693877551  L 159.22265625 18.8571428571429  L 169.06640625 25.2244897959184  L 179.15625 26.9387755102041  L 188.75390625 0.489795918367347  " stroke-width="1" stroke="#51d351" fill="none" transform="matrix(1 0 0 1 1149 234 )" />
  </g>
</svg>